<svg width="1140" height="166" viewBox="0 0 1140 166" fill="none" xmlns="http://www.w3.org/2000/svg">
<path d="M-21.3493 148.748C-24.998 148.704 -28.613 148.504 -32.1858 148.097C-56.9521 145.325 -75.0321 133.33 -87.4606 111.423L-87.7333 110.948L-87.3458 111.287C-79.7018 118.186 -71.0666 123.312 -61.878 126.406C-53.6166 129.071 -45.0491 130.074 -36.5199 129.372C-19.6065 128.2 -2.32532 121.462 14.3772 114.943C29.5064 109.045 45.1492 102.936 60.8106 100.766C101.295 95.0926 143.94 103.237 185.189 111.099C206.126 115.093 227.778 119.223 248.502 121.357C256.403 122.179 263.988 122.889 271.314 123.507C274.403 123.407 277.5 123.296 280.573 123.176C288.394 122.887 296.361 122.619 304.067 122.358C353.192 120.678 403.829 118.948 453.274 111.525C469.003 105.889 484.336 97.8214 499.293 89.9558C512.618 82.9449 526.401 75.6939 540.16 70.3482C555.575 64.3643 569.373 61.4257 582.352 61.385C608.977 61.282 636.544 72.8896 663.196 84.1129C680.694 91.4739 698.791 99.0877 716.152 103.117C784.915 119.06 850.332 120.915 910.632 108.603C954.473 99.6502 988.498 78.9782 1024.52 57.0925C1029.83 53.8752 1035.19 50.6194 1040.64 47.3646C1044.52 44.3921 1048.53 41.4508 1052.68 38.5406C1060.29 33.2008 1068.55 29.345 1077.15 27.1153C1103.17 15.6398 1156 6.91224 1185.35 27.0971C1197.21 35.2549 1204.08 47.3607 1205.73 63.0777L1205.73 63.2446L1205.6 63.1842C1199.64 60.4015 1193.64 57.4613 1187.31 54.3401C1152.19 37.0724 1113.27 17.9319 1077.16 27.3118C1075.46 28.0577 1073.85 28.8242 1072.35 29.6215C1061.38 35.3838 1050.89 41.4463 1040.68 47.532C1029.77 55.8882 1019.84 64.3839 1010.16 72.7057C995.332 85.4059 981.334 97.3988 965.401 107.532C947.902 118.718 929.052 126.498 909.545 130.584C881.9 136.477 853.845 139.101 825.776 138.42C797.732 137.913 769.801 133.977 742.409 126.673C724.104 121.709 705.642 114.003 687.795 106.559C658.307 94.2505 627.847 81.5375 596.623 80.4262C570.006 79.4881 543.406 87.8918 517.67 96.021C501.564 101.113 484.912 106.374 468.457 109.261C463.427 110.157 458.385 110.981 453.329 111.732C447.918 113.685 442.43 115.307 436.884 116.594C408.258 123.126 377.48 126.431 342.905 126.743C321.204 126.954 298.058 125.979 271.329 123.714C260.899 124.08 250.412 124.445 240.194 124.745C182.307 126.545 122.526 128.451 64.3273 135.955C55.216 137.123 45.4807 139.108 35.1675 141.214C16.4134 145.026 -2.87812 148.97 -21.3493 148.748ZM-87.057 111.782C-74.6664 133.335 -56.707 145.151 -32.168 147.901C-10.5199 150.332 12.6868 145.6 35.1365 141.017C45.4496 138.921 55.193 136.936 64.3125 135.758C122.52 128.254 182.325 126.369 240.172 124.509C249.861 124.193 259.787 123.88 269.68 123.537C262.869 122.957 255.806 122.286 248.492 121.524C227.785 119.39 206.125 115.26 185.18 111.266C143.947 103.394 101.31 95.2499 60.8499 100.933C45.1802 103.132 29.5375 109.231 14.4165 115.111C-2.30223 121.629 -19.5916 128.377 -36.5131 129.549C-45.0617 130.252 -53.6486 129.247 -61.928 126.572C-70.9794 123.534 -79.4958 118.522 -87.057 111.782ZM593.895 80.1283C594.805 80.1392 595.707 80.15 596.609 80.1608C627.841 81.2722 658.333 93.9954 687.829 106.304C705.652 113.747 724.13 121.474 742.427 126.418C769.811 133.714 797.734 137.646 825.769 138.155C853.839 138.838 881.894 136.214 909.539 130.319C929.021 126.239 947.847 118.469 965.321 107.295C981.247 97.2013 995.244 85.2084 1010.06 72.4688C1019.37 64.4962 1028.88 56.3392 1039.32 48.2623C1034.33 51.2475 1029.42 54.224 1024.55 57.1813C988.521 79.0767 954.481 99.7485 910.623 108.711C850.339 121.112 784.905 119.256 716.126 103.323C698.757 99.2838 680.66 91.6699 663.154 84.3088C636.98 73.2877 609.931 61.9123 583.781 61.5986L582.359 61.5815C569.404 61.6226 555.614 64.5514 540.216 70.5355C526.472 75.8814 512.69 83.1324 499.365 90.1335C484.677 97.8157 469.662 105.759 454.259 111.38C458.989 110.664 463.708 109.892 468.418 109.064C484.865 106.168 501.517 100.906 517.615 95.8239C542.472 87.9297 568.15 79.8194 593.895 80.1283ZM272.971 123.615C298.961 125.784 321.637 126.704 342.891 126.517C377.49 126.195 408.22 122.871 436.837 116.357C442.039 115.172 447.203 113.633 452.313 111.838C403.169 119.107 352.874 120.851 304.074 122.525C296.367 122.786 288.393 123.054 280.58 123.343L272.971 123.615ZM1098.2 24.6468C1128.1 25.0055 1158.98 40.1989 1187.37 54.2034C1193.67 57.3044 1199.62 60.2441 1205.54 62.9968C1203.86 47.417 1197.04 35.3904 1185.26 27.3121C1167.71 15.2452 1143.3 14.3825 1125.91 15.7948C1109.14 17.1456 1091.25 21.371 1078.27 26.8832C1084.83 25.2986 1091.51 24.549 1098.2 24.6468ZM1076.01 27.6223C1067.83 29.8787 1059.98 33.6162 1052.73 38.7081C1049.03 41.2833 1045.46 43.8894 1042.01 46.5265C1051.81 40.7502 1061.83 34.9765 1072.3 29.4342C1073.45 28.8292 1074.69 28.2154 1076.01 27.6222L1076.01 27.6223Z" fill="white" fill-opacity="0.6"/>
<path d="M-23.8264 159.366C-28.3013 159.312 -32.7583 159.052 -37.132 158.507C-58.6922 155.865 -75.5 146.769 -88.4937 130.697L-88.9443 130.14L-88.395 130.54C-56.7919 153.79 -18.9464 143.705 17.6537 133.96C37.4716 128.682 56.1909 123.686 74.0602 123.615C109.474 123.468 145.571 127.427 180.482 131.303C215.394 135.179 251.515 139.149 287.091 139.024C348.821 138.779 402.889 133.587 452.369 123.022C468.526 119.571 484.461 113.38 499.874 107.389C517.429 100.567 535.588 93.5062 554.048 90.5463C587.39 85.2041 622.299 96.7626 656.042 107.933C675.85 114.494 696.339 121.28 716.019 124.412C783.781 135.133 855.188 134.365 928.26 122.141C952.589 118.168 976.491 111.015 999.549 100.806C1020.81 91.4674 1040.87 80.0759 1062.12 67.9993C1072.56 62.0672 1083.33 55.9321 1094.95 49.6791C1104.73 44.3695 1123.13 40.7193 1140.61 40.6139C1162.3 40.4801 1179.63 45.6521 1189.42 55.166C1197.75 63.2636 1200.79 74.4005 1198.48 88.2703L1198.47 88.4082L1198.38 88.3381C1181.63 76.5036 1163.09 68.8564 1143.87 65.8479C1126.79 63.1904 1108.96 64.0699 1089.51 68.5545C1053.31 76.8961 1016.66 96.7167 981.207 115.882C950.598 132.436 918.936 149.549 887.918 159.026C872.041 163.919 855.749 166.566 839.368 166.914C824.155 167.185 808.954 165.684 793.975 162.43C764.515 156.246 735.79 144.279 708.004 132.707C668.729 116.349 628.175 99.4531 583.276 97.3188C556.134 96.0083 527.619 106.323 500.049 116.266C481.316 123.014 462.014 129.983 443.462 133.178C379.831 144.125 313.899 145.738 250.129 147.268L244.369 147.405C222.386 147.93 200.059 147.947 178.462 147.964C133.993 147.992 88.0132 148.022 42.8438 152.542C35.8533 153.246 28.755 154.245 21.242 155.307C6.38699 157.374 -8.92367 159.545 -23.8264 159.366ZM-87.9203 131.117C-75.0455 146.804 -58.3904 155.701 -37.1143 158.32C-18.1426 160.646 1.87591 157.803 21.2356 155.08C28.7486 154.018 35.8713 153.02 42.8373 152.326C88.0149 147.795 133.995 147.766 178.512 147.738C200.109 147.721 222.437 147.704 244.419 147.179L250.179 147.042C313.933 145.512 379.856 143.939 443.48 132.981C462.023 129.786 481.351 122.808 500.043 116.068C527.629 106.117 556.152 95.8213 583.318 97.1125C628.242 99.2273 668.812 116.123 708.046 132.471C735.824 144.043 764.55 156 794.002 162.194C808.967 165.443 824.154 166.944 839.354 166.678C855.724 166.33 872.005 163.682 887.871 158.789C918.881 149.312 950.526 132.209 981.136 115.655C1016.59 96.4893 1053.26 76.6689 1089.48 68.3275C1109 63.834 1126.78 62.9441 1143.91 65.612C1163.12 68.6127 1181.64 76.2462 1198.38 88.0623C1200.65 74.3002 1197.61 63.3014 1189.36 55.2834C1179.6 45.7896 1162.3 40.6376 1140.65 40.7719C1123.19 40.8776 1104.89 44.519 1095.1 49.8287C1083.52 56.0919 1072.72 62.2266 1062.27 68.1488C1019.76 92.2625 983.039 113.166 928.364 122.31C855.276 134.543 783.852 135.351 716.075 124.58C696.411 121.468 675.922 114.682 656.098 108.101C622.371 96.9211 587.486 85.3727 554.168 90.7152C535.725 93.6754 517.542 100.726 500.019 107.548C484.606 113.539 468.663 119.74 452.49 123.19C403.01 133.756 348.941 138.988 287.187 139.192C251.611 139.317 215.49 135.378 180.562 131.472C145.635 127.566 109.472 123.665 74.0587 123.812C56.2382 123.883 37.5189 128.869 17.6928 134.157C-2.80881 139.614 -23.7012 145.194 -43.6717 144.955C-59.1835 144.768 -74.1323 141.063 -87.9203 131.117Z" fill="white" fill-opacity="0.6"/>
<path d="M801.884 184.179C797.822 184.13 793.842 183.984 789.846 183.74C765.892 182.245 742.165 177.343 719.156 169.134C702.196 163.103 684.895 153.982 668.152 145.133C654.225 137.793 640.08 130.321 625.728 124.381C617.757 122.44 609.708 121.011 601.613 120.102C586.529 118.437 570.904 119.527 553.836 123.459C538.574 126.961 523.428 132.371 508.779 137.61C492.483 143.449 475.602 149.486 457.877 153.205C430.898 158.875 402.845 160.652 374.754 160.963C334.131 165.851 290.387 167.754 240.188 166.916C213.655 166.47 186.446 164.05 160.123 161.71C124.056 158.457 86.7621 155.199 50.5197 156.828C37.7749 157.422 24.4444 160.22 10.3323 163.225C-25.3785 170.737 -62.2938 178.499 -90.848 149.236L-91.2108 148.868L-90.7736 149.069C-55.4965 165.216 -14.428 160.451 25.2823 155.867C45.3204 153.552 64.2525 151.362 82.4177 151.697C116.4 152.331 150.919 154.023 184.301 155.662C221.11 157.469 259.162 159.341 296.64 159.79L299.036 159.819C307.291 159.918 315.764 160.089 323.985 160.256C340.761 160.585 357.764 160.927 374.747 160.737C389.118 159.013 403.101 156.901 416.835 154.422C437.022 150.733 458.214 143.126 480.653 135.032C513.529 123.182 547.521 110.933 577.996 112.31C594.159 113.035 610.089 117.717 625.778 124.214C646.248 129.138 666.258 136.846 685.749 144.372C718.405 156.88 752.146 169.913 787.63 169.729C820.53 169.564 853.765 160.696 885.901 152.089C902.942 147.528 920.561 142.825 937.779 139.524C996.83 128.214 1043.48 108.185 1097.5 85.0028L1104.9 81.829C1117.94 76.4786 1131.44 72.9318 1145.15 71.2563C1153.83 70.2696 1161.47 70.3908 1167.83 71.6267C1175.29 73.0724 1181.01 76.0596 1184.82 80.5079C1191.06 87.7959 1192.24 99.0719 1188.34 113.962L1188.34 114.061L1188.27 114.06C1156.19 100.988 1132.92 95.7069 1110.47 96.4202C1087.8 97.131 1064.96 103.903 1034.07 119.089C982.184 144.626 922.486 165.028 861.407 178.083C841.764 182.325 821.839 184.365 801.884 184.179ZM626.928 124.68C640.899 130.547 654.672 137.788 668.21 144.967C684.929 153.796 702.198 162.926 719.214 168.948C742.211 177.161 765.928 182.064 789.872 183.554C813.805 184.919 837.788 183.024 861.368 177.906C922.406 164.88 982.129 144.458 1034 118.931C1064.9 103.716 1087.8 96.9737 1110.45 96.2628C1132.91 95.5495 1156.17 100.84 1188.23 113.902C1192.08 99.0896 1190.87 87.9212 1184.72 80.7032C1180.94 76.2847 1175.26 73.3078 1167.83 71.8723C1161.47 70.6365 1153.86 70.5157 1145.18 71.5024C1131.48 73.154 1117.97 76.6777 1104.92 82.0062L1097.53 85.18C1043.5 108.372 996.845 128.4 937.777 139.72C920.567 143.012 902.948 147.724 885.916 152.276C853.772 160.873 820.528 169.76 787.612 169.926C786.783 169.916 785.955 169.906 785.126 169.896C750.524 169.481 717.585 156.792 685.707 144.509C666.556 137.164 646.984 129.608 626.928 124.68ZM-90.3864 149.428C-61.9338 178.179 -25.2139 170.463 10.3016 162.998C24.4215 160.023 37.752 157.225 50.5133 156.602C86.7643 154.924 124.066 158.231 160.165 161.435C186.489 163.776 213.698 166.195 240.223 166.641C289.682 167.47 332.857 165.64 372.975 160.903C356.585 161.05 340.199 160.726 324.009 160.394C315.405 160.222 306.51 160.046 297.882 159.953L296.671 159.938C259.185 159.488 221.125 157.617 184.332 155.809C150.91 154.2 116.366 152.508 82.4164 151.874C64.2511 151.548 45.3353 153.719 25.3378 156.044C-14.2667 160.61 -55.1721 165.289 -90.3864 149.428ZM574.534 112.387C544.978 112.032 512.322 123.806 480.7 135.2C458.253 143.294 437.053 150.93 416.858 154.589C403.694 156.977 390.296 159.007 376.551 160.7C404.034 160.322 431.454 158.509 457.862 152.968C475.587 149.25 492.445 143.212 508.748 137.374C523.413 132.135 538.552 126.715 553.821 123.174C570.914 119.262 586.547 118.172 601.647 119.817C609.347 120.692 617.006 122.037 624.594 123.846C609.294 117.599 593.752 113.128 578.011 112.419C576.847 112.411 575.688 112.401 574.534 112.387Z" fill="white" fill-opacity="0.6"/>
<path d="M2.8862 204.408C-19.8588 204.135 -38.6463 201.604 -53.1111 196.869C-62.2195 193.875 -69.8258 189.948 -75.7115 185.178C-82.0089 180.07 -86.5269 173.865 -89.1365 166.711L-89.2241 166.475L-89.0299 166.585C-73.6624 175.432 -54.9336 180.317 -31.8302 181.516C-11.3742 182.585 9.98176 180.723 30.6385 178.93C48.6289 177.36 65.595 175.876 81.458 176.282C130.687 177.56 182.182 177.952 241.58 177.507L267.517 175.768C341.003 170.881 411.157 166.219 483.221 151.867L487.113 150.658C523.661 139.325 561.454 127.574 599.214 137.2C620.806 142.707 639.637 154.303 657.846 165.529C679.799 179.056 702.487 193.033 730.18 196.436C754.723 199.457 779.581 198.598 808.402 193.735C833.871 189.429 858.473 182.7 884.516 175.567C893.691 173.057 903.168 170.463 912.618 168.055C918.471 166.536 929.148 163.123 942.667 158.792C1008.34 137.781 1145 94.0579 1174.12 123.632C1178.24 127.812 1180.08 133.377 1179.59 140.179L1179.59 140.267L1179.52 140.267C1069.2 140.68 969.591 166.012 864.131 192.833C854.363 195.326 844.196 197.902 834.144 200.43C809.264 206.59 783.743 208.071 758.484 204.82C734.59 201.855 710.375 195.109 684.446 184.213C670.777 178.457 658.025 171.849 645.693 165.452C627.357 155.941 610.041 146.963 591.664 141.749C571.05 135.89 552.05 135.633 531.878 140.924C515.543 145.208 499.337 148.938 483.26 152.113C475.931 154.39 468.406 156.683 461.063 158.714C433.041 166.481 402.366 171.578 367.299 174.267C335.938 176.696 303.691 177.065 272.508 177.427L271.274 177.412C261.172 177.526 251.295 177.62 241.643 177.694C226.045 178.763 210.211 179.897 194.327 181.178C185.678 181.869 171.198 184.383 152.846 187.548C113.221 194.44 58.9537 203.874 10.8804 204.376C8.1612 204.429 5.49646 204.439 2.8862 204.408ZM-88.894 166.871C-86.2833 173.887 -81.8133 179.994 -75.6127 185.013C-69.7432 189.773 -62.1531 193.699 -53.0609 196.673C-36.9592 201.958 -15.4583 204.492 10.8573 204.219C58.9139 203.765 113.182 194.282 152.798 187.39C171.134 184.206 185.606 181.682 194.28 181.02C209.082 179.825 223.844 178.756 238.41 177.763C180.353 178.165 129.825 177.755 81.4806 176.508C65.6501 176.103 48.6597 177.586 30.6775 179.146C10.0125 180.949 -11.3516 182.811 -31.8076 181.742C-54.8621 180.514 -73.5263 175.689 -88.894 166.871ZM561.367 136.902C571.573 137.065 581.733 138.602 591.658 141.484C610.043 146.708 627.368 155.647 645.711 165.207C658.043 171.594 670.795 178.261 684.448 183.958C738.396 206.639 787.334 211.945 834.056 200.174C844.117 197.636 854.251 195.06 864.052 192.568C969.495 165.755 1069.09 140.423 1179.4 140.01C1179.85 133.305 1178.04 127.829 1173.98 123.709C1144.91 94.2041 1008.31 137.909 942.666 158.92C929.147 163.241 918.47 166.654 912.609 168.183C903.166 170.64 893.682 173.234 884.515 175.743C858.464 182.867 833.853 189.606 808.384 193.901C779.547 198.774 754.681 199.634 730.13 196.612C702.404 193.208 679.692 179.211 657.731 165.684C639.53 154.469 620.707 142.873 599.139 137.365C561.421 127.75 523.643 139.481 487.112 150.825L485.027 151.477C500.509 148.354 516.099 144.747 531.799 140.658C541.506 138.068 551.424 136.808 561.367 136.902ZM481.356 152.404C409.928 166.489 340.327 171.118 267.458 175.963L244.813 177.487C253.431 177.414 262.221 177.326 271.186 177.224L272.42 177.239C303.603 176.877 335.85 176.509 367.211 174.079C402.27 171.351 432.929 166.254 460.951 158.526C467.725 156.587 474.614 154.501 481.356 152.404Z" fill="white" fill-opacity="0.6"/>
<path d="M785.187 242.185C758.8 241.751 732.589 236.858 707.304 227.646C686.287 220.092 666.296 206.96 646.967 194.271C636.564 187.447 626.006 180.503 615.215 174.398C611.07 172.448 606.887 170.538 602.666 168.667C581.614 159.351 560.745 155.786 537.001 157.46C515.784 158.957 494.821 164.444 472.621 170.253C465.408 172.145 457.967 174.094 450.365 175.923C402.023 187.652 352.612 189.483 304.818 191.245C298.138 191.491 291.287 191.745 284.444 191.99C269.41 193.531 254.358 195.339 239.367 197.643C225.213 199.818 208.965 202.947 191.756 206.254C147.818 214.711 93.1813 225.226 42.6856 225.461C15.0613 225.585 -8.47798 222.74 -29.304 216.771C-40.1392 213.74 -50.7154 209.469 -60.8916 204.014C-70.5809 198.795 -79.6996 192.128 -88.0374 184.167L-88.2955 183.916L-87.971 183.99C-38.59 195.585 12.5542 199.77 64.1158 200.389C114.759 200.996 165.803 198.136 216.019 195.285C235.851 194.177 256.366 193.018 276.164 192.138L284.397 191.781C300.009 190.188 315.561 188.88 330.845 187.589C355.316 185.518 380.624 183.388 405.469 180.133C423.361 177.805 441.709 173.177 461.164 168.285C498.845 158.843 537.813 149 573.127 156.855C587.653 160.076 601.635 166.468 615.241 174.18C622.932 177.785 630.475 181.487 637.857 185.108C671.415 201.559 703.111 217.108 740.694 221.516C794.072 227.787 839.894 210.922 888.34 193.07C895.111 190.569 902.118 187.991 909.132 185.473C937.011 175.498 966.067 170.978 994.17 166.616C1018.62 162.813 1043.91 158.881 1068.36 151.358C1073.82 149.682 1080.23 147.107 1087 144.369C1109.88 135.154 1138.34 123.692 1156.59 136.219C1160.61 138.998 1164.04 142.874 1166.61 147.54C1169.72 153.361 1171.92 159.836 1173.08 166.635L1173.08 166.803L1172.95 166.801C1122.7 150.367 1069.95 159.451 1018.91 168.199C1011.14 169.53 1003.09 170.908 995.257 172.16C963.467 177.22 938.341 190.563 911.747 204.68C894.999 213.562 877.688 222.754 858.395 229.825C834.646 238.423 809.964 242.59 785.187 242.185ZM617.393 175.413C627.455 181.213 637.317 187.694 647.034 194.084C666.362 206.772 686.345 219.905 707.337 227.459C759.191 246.098 811.418 246.844 858.437 229.608C877.722 222.537 895.033 213.355 911.765 204.463C938.375 190.346 963.518 177.003 995.332 171.933C1003.16 170.681 1011.2 169.303 1018.97 167.972C1069.97 159.233 1122.69 150.15 1172.91 166.583C1171.75 159.864 1169.58 153.464 1166.51 147.707C1163.94 143.071 1160.53 139.22 1156.54 136.456C1138.35 123.959 1109.92 135.412 1087.08 144.617C1080.3 147.355 1073.89 149.93 1068.43 151.616C1044 159.13 1018.67 163.061 994.209 166.863C966.121 171.236 937.074 175.746 909.203 185.731C902.189 188.24 895.182 190.817 888.411 193.318C846.239 208.851 806.12 223.637 761.204 223.098C754.488 223.018 747.654 222.576 740.7 221.774C703.101 217.365 671.389 201.806 637.798 185.345C631.137 182.029 624.322 178.692 617.393 175.413ZM-87.6564 184.28C-79.3988 192.122 -70.3788 198.694 -60.8009 203.847C-50.6433 209.298 -40.0862 213.569 -29.2702 216.603C-8.49286 222.562 15.0464 225.407 42.687 225.283C93.1664 225.048 147.82 214.533 191.733 206.085C208.933 202.769 225.19 199.649 239.344 197.464C253.245 195.326 267.265 193.614 281.25 192.149L276.203 192.366C256.373 193.246 235.857 194.405 216.058 195.513C114.79 201.194 10.1097 207.053 -87.6564 184.28ZM547.287 154.229C519.308 153.894 489.898 161.288 461.236 168.504C441.772 173.405 423.392 178.023 405.524 180.362C380.671 183.616 355.363 185.697 330.884 187.817C316.665 189.012 302.21 190.234 287.697 191.682C293.45 191.454 299.188 191.246 304.82 191.037C352.597 189.275 402.001 187.443 450.367 175.715C457.945 173.827 465.402 171.938 472.615 170.045C494.823 164.237 515.802 158.749 537.019 157.253C560.788 155.559 581.689 159.144 602.741 168.47C606.158 169.988 609.55 171.53 612.918 173.094C600.062 166.014 586.848 160.126 573.15 157.083C564.611 155.236 555.958 154.282 547.287 154.229Z" fill="white" fill-opacity="0.6"/>
<path d="M756.457 277.331L752.394 277.282C726.108 276.632 700.002 271.845 674.735 263.043C649.806 254.278 629.778 239.06 610.413 224.341C596.428 213.713 581.967 202.726 565.546 193.984C556.986 189.407 547.972 186.192 538.729 184.421C529.967 182.774 521.088 182.233 512.234 182.806C494.617 183.793 477.46 188.282 459.295 192.975C446.992 196.157 434.265 199.451 421.474 201.527C390.865 206.513 359.285 208.874 328.761 211.16C305.816 212.849 282.098 214.646 258.981 217.522C237.776 220.155 216.149 223.637 195.231 227.001C148.04 234.596 99.1575 242.456 51.7267 241.131C26.1915 240.412 3.09728 237.169 -18.8953 231.209C-42.9494 224.793 -66.2093 214.609 -88.0849 200.914L-88.4245 200.694L-88.0345 200.699C21.1287 209.777 135.346 212.542 251.384 208.915C312.996 206.983 363.684 202.121 410.906 193.583C425.351 190.977 441.132 185.666 457.842 180.042C477.249 173.508 497.308 166.766 516.516 163.922C538.278 160.716 555.73 163.174 569.88 171.437C588.228 182.156 601.02 194.665 613.4 206.757C632.355 225.281 650.26 242.772 685.14 250.017C712.222 255.635 741.387 256.643 771.815 253.021C798.656 249.827 826.524 243.178 857.11 232.692C866.561 229.456 880.625 223.487 898.431 215.922C955.322 191.775 1044.93 153.732 1105.73 154.461C1136.06 154.825 1159.2 164.816 1167.59 190.973L1167.58 191.11L1167.54 191.11C1151.13 190.579 1134.39 189.416 1118.19 188.298C1074.45 185.269 1029.22 182.133 985.185 190.818C953.745 197.021 926.854 214.092 900.854 230.604C878.846 244.581 856.087 259.021 830.591 266.936C806.361 274.285 781.439 277.779 756.457 277.331ZM520.55 182.386C526.647 182.441 532.733 183.046 538.756 184.195C548.013 185.97 557.041 189.192 565.612 193.779C582.041 202.521 596.511 213.517 610.504 224.145C629.894 238.855 649.873 254.082 674.778 262.817C700.031 271.619 726.123 276.406 752.396 277.057C778.699 277.92 804.975 274.421 830.488 266.659C855.975 258.764 878.718 244.315 900.717 230.357C926.735 213.835 953.642 196.754 985.105 190.552C1029.16 181.858 1074.4 184.993 1118.14 188.023C1134.3 189.14 1151 190.293 1167.37 190.833C1158.98 164.882 1135.9 154.941 1105.72 154.579C1044.97 153.85 955.361 191.884 898.471 216.04C880.665 223.605 866.593 229.575 857.134 232.82C826.539 243.257 798.631 249.944 771.822 253.148C741.37 256.78 712.196 255.772 685.098 250.144C650.211 242.85 632.256 225.378 613.278 206.844C600.913 194.752 588.121 182.253 569.798 171.544C555.672 163.301 538.252 160.853 516.523 164.03C497.323 166.854 477.264 173.606 457.89 180.141C441.172 185.764 425.39 191.085 410.938 193.691C363.708 202.229 313.019 207.121 251.399 209.053C205.93 210.472 160.802 210.913 116.014 210.375C46.7444 209.544 -21.3779 206.37 -87.6457 200.871C-65.8866 214.451 -42.7622 224.56 -18.8526 230.944C3.10743 236.904 26.1935 240.147 51.7125 240.866C99.1351 242.201 147.969 234.33 195.192 226.735C216.111 223.372 237.737 219.889 258.951 217.256C282.068 214.381 305.793 212.613 328.731 210.894C359.271 208.609 390.851 206.248 421.444 201.272C434.226 199.186 446.953 195.891 459.256 192.709C477.43 188.016 494.594 183.567 512.212 182.541C515.073 182.438 517.837 182.353 520.55 182.386Z" fill="white" fill-opacity="0.6"/>
</svg>
