<svg width="16" height="14" viewBox="0 0 16 14" fill="none" xmlns="http://www.w3.org/2000/svg">
<path d="M3.62 13.47C2.668 13.47 1.912 13.162 1.352 12.546C0.792 11.93 0.512 11.146 0.512 10.194C0.512 9.69 0.582 9.186 0.722 8.682C0.89 8.15 1.184 7.38 1.604 6.372L3.788 0.869998H6.812L5.384 7.38C6.336 8.108 6.812 9.046 6.812 10.194C6.812 11.146 6.518 11.93 5.93 12.546C5.342 13.162 4.572 13.47 3.62 13.47ZM12.23 13.47C11.278 13.47 10.522 13.162 9.962 12.546C9.402 11.93 9.122 11.146 9.122 10.194C9.122 9.69 9.192 9.186 9.332 8.682C9.5 8.15 9.794 7.38 10.214 6.372L12.398 0.869998H15.422L13.994 7.38C14.946 8.108 15.422 9.046 15.422 10.194C15.422 11.146 15.128 11.93 14.54 12.546C13.952 13.162 13.182 13.47 12.23 13.47Z" fill="white"/>
</svg>
