<svg width="233" height="48" viewBox="0 0 233 48" fill="none" xmlns="http://www.w3.org/2000/svg">
<rect width="233" height="48" rx="24" fill="white"/>
<path d="M0 24C0 10.7452 10.7452 0 24 0H150V48H24C10.7452 48 0 37.2548 0 24Z" fill="#A5CEFF"/>
<circle cx="22.5" cy="24.5" r="12.5" fill="#1D75DD"/>
<path d="M27 25L19.5 29.3301V20.6699L27 25Z" fill="white"/>
<path d="M49.08 35.312C48.712 35.8347 48.192 36.096 47.52 36.096C46.848 36.096 46.3253 35.8347 45.952 35.312C45.584 34.784 45.4 34.08 45.4 33.2C45.4 32.32 45.584 31.6187 45.952 31.096C46.3253 30.568 46.848 30.304 47.52 30.304C48.192 30.304 48.712 30.568 49.08 31.096C49.4533 31.6187 49.64 32.32 49.64 33.2C49.64 34.08 49.4533 34.784 49.08 35.312ZM46.368 34.936C46.6453 35.3467 47.0293 35.552 47.52 35.552C48.0107 35.552 48.392 35.3467 48.664 34.936C48.9413 34.5253 49.08 33.9467 49.08 33.2C49.08 32.4533 48.9413 31.8747 48.664 31.464C48.392 31.0533 48.0107 30.848 47.52 30.848C47.0293 30.848 46.6453 31.0533 46.368 31.464C46.096 31.8747 45.96 32.4533 45.96 33.2C45.96 33.9467 46.096 34.5253 46.368 34.936ZM51.2711 32.672C51.1857 32.7573 51.0817 32.8 50.9591 32.8C50.8364 32.8 50.7324 32.7573 50.6471 32.672C50.5617 32.5867 50.5191 32.4827 50.5191 32.36C50.5191 32.2373 50.5617 32.1333 50.6471 32.048C50.7324 31.9627 50.8364 31.92 50.9591 31.92C51.0817 31.92 51.1857 31.9627 51.2711 32.048C51.3564 32.1333 51.3991 32.2373 51.3991 32.36C51.3991 32.4827 51.3564 32.5867 51.2711 32.672ZM51.2711 35.952C51.1857 36.0373 51.0817 36.08 50.9591 36.08C50.8364 36.08 50.7324 36.0373 50.6471 35.952C50.5617 35.8667 50.5191 35.7627 50.5191 35.64C50.5191 35.5173 50.5617 35.4133 50.6471 35.328C50.7324 35.2427 50.8364 35.2 50.9591 35.2C51.0817 35.2 51.1857 35.2427 51.2711 35.328C51.3564 35.4133 51.3991 35.5173 51.3991 35.64C51.3991 35.7627 51.3564 35.8667 51.2711 35.952ZM54.0028 32.656C54.5255 32.656 54.9681 32.8107 55.3308 33.12C55.6988 33.424 55.8828 33.8427 55.8828 34.376C55.8828 34.9093 55.6988 35.3307 55.3308 35.64C54.9681 35.944 54.5255 36.096 54.0028 36.096C53.5815 36.096 53.2055 35.9947 52.8748 35.792C52.5441 35.584 52.3201 35.288 52.2028 34.904L52.6748 34.632C52.7548 34.9307 52.9121 35.16 53.1468 35.32C53.3868 35.4747 53.6721 35.552 54.0028 35.552C54.3868 35.552 54.7015 35.4507 54.9468 35.248C55.1975 35.04 55.3228 34.7493 55.3228 34.376C55.3228 34.0027 55.1975 33.7147 54.9468 33.512C54.7015 33.304 54.3868 33.2 54.0028 33.2H52.4828L52.6828 30.4H55.6828V30.928H53.1788L53.0588 32.656H54.0028ZM58.3231 32.4C58.8725 32.4 59.3231 32.5733 59.6751 32.92C60.0271 33.2613 60.2031 33.704 60.2031 34.248C60.2031 34.792 60.0271 35.2373 59.6751 35.584C59.3231 35.9253 58.8725 36.096 58.3231 36.096C57.7738 36.096 57.3231 35.9253 56.9711 35.584C56.6191 35.2373 56.4431 34.792 56.4431 34.248C56.4431 33.8267 56.5578 33.4533 56.7871 33.128L58.6191 30.4H59.2511L57.8751 32.448C58.0191 32.416 58.1685 32.4 58.3231 32.4ZM57.3631 35.192C57.6085 35.432 57.9285 35.552 58.3231 35.552C58.7178 35.552 59.0351 35.432 59.2751 35.192C59.5205 34.952 59.6431 34.6373 59.6431 34.248C59.6431 33.8587 59.5205 33.544 59.2751 33.304C59.0351 33.064 58.7178 32.944 58.3231 32.944C57.9285 32.944 57.6085 33.064 57.3631 33.304C57.1231 33.544 57.0031 33.8587 57.0031 34.248C57.0031 34.6373 57.1231 34.952 57.3631 35.192Z" fill="#1D75DD"/>
<g clip-path="url(#clip0_102_2)">
<path d="M47.3358 22.1896V26.5H45V22.1896C45 21.8779 45.1348 21.5984 45.3369 21.3941C45.5503 21.1899 45.8422 21.0717 46.1679 21.0717C46.8192 21.0717 47.3358 21.5661 47.3358 22.1896Z" fill="#1D75DD"/>
<path d="M51.2999 23.716V26.5H48.9641V23.716C48.9641 23.4042 49.0989 23.1248 49.301 22.9205C49.5144 22.7163 49.8063 22.598 50.132 22.598C50.7721 22.598 51.2999 23.0925 51.2999 23.716Z" fill="#1D75DD"/>
<path d="M55.2528 16.8257V26.5H52.917V16.8257C52.917 16.514 53.0518 16.2345 53.2652 16.0303C53.4785 15.8261 53.7705 15.7078 54.0962 15.7078C54.7363 15.7078 55.2528 16.2023 55.2528 16.8257Z" fill="#1D75DD"/>
<path d="M59.217 11.1179V26.5H56.8813V11.1179C56.8813 10.8062 57.016 10.5267 57.2294 10.3225C57.4428 10.1182 57.7347 10 58.0604 10C58.6892 10 59.217 10.5052 59.217 11.1179Z" fill="#1D75DD"/>
<path d="M63.1811 20.9857V26.5H60.8341V20.9857C60.8341 20.6739 60.9688 20.3945 61.1822 20.1902C61.3956 19.986 61.6875 19.8678 62.0132 19.8678C62.6533 19.8678 63.1811 20.373 63.1811 20.9857Z" fill="#1D75DD"/>
<path d="M67.134 14.9554V26.5001H64.7982V14.9554C64.7982 14.6436 64.933 14.3642 65.1351 14.1599C65.3485 13.9557 65.6404 13.8375 65.9661 13.8375C66.6062 13.8375 67.134 14.3427 67.134 14.9554Z" fill="#1D75DD"/>
<path d="M71.0981 22.899V26.5H68.7626V22.899C68.7626 22.5873 68.8973 22.3078 69.0994 22.1036C69.3128 21.8993 69.6047 21.7704 69.9304 21.7704C70.5704 21.7811 71.0981 22.2863 71.0981 22.899Z" fill="#1D75DD"/>
<path d="M75.051 22.1896V26.5H72.7152V22.1896C72.7152 21.8779 72.85 21.5984 73.0521 21.3941C73.2655 21.1899 73.5575 21.0717 73.8831 21.0717C74.5345 21.0717 75.051 21.5661 75.051 22.1896Z" fill="#1D75DD"/>
<path d="M79.0152 23.716V26.5H76.6681V23.716C76.6681 23.4042 76.8029 23.1248 77.005 22.9205C77.2184 22.7163 77.5104 22.598 77.836 22.598C78.4874 22.598 79.0152 23.0925 79.0152 23.716Z" fill="#1D75DD"/>
<path d="M82.9681 16.8257V26.5H80.6323V16.8257C80.6323 16.514 80.767 16.2345 80.9692 16.0303C81.1825 15.8261 81.4745 15.7078 81.8002 15.7078C82.4515 15.7078 82.9681 16.2023 82.9681 16.8257Z" fill="#1D75DD"/>
<path d="M86.9327 11.1179V26.5H84.5964V11.1179C84.5964 10.8062 84.7312 10.5267 84.9334 10.3225C85.1468 10.1182 85.4388 10 85.7646 10C86.4048 10 86.9327 10.5052 86.9327 11.1179Z" fill="#1D75DD"/>
<path d="M90.8851 20.9857V26.5H88.5498V20.9857C88.5498 20.6739 88.6845 20.3945 88.8866 20.1902C89.1 19.986 89.3919 19.8678 89.7175 19.8678C90.3687 19.8678 90.8851 20.373 90.8851 20.9857Z" fill="#1D75DD"/>
<path d="M94.8493 14.9554V26.5001H92.5129V14.9554C92.5129 14.6436 92.6477 14.3642 92.8611 14.1599C93.0746 13.9557 93.3666 13.8375 93.6923 13.8375C94.3326 13.8375 94.8493 14.3427 94.8493 14.9554Z" fill="#1D75DD"/>
<path d="M98.8139 22.899V26.5H96.4776V22.899C96.4776 22.5873 96.6124 22.3078 96.8258 22.1036C97.0392 21.8993 97.3312 21.7704 97.657 21.7704C98.286 21.7811 98.8139 22.2863 98.8139 22.899Z" fill="#1D75DD"/>
<path d="M102.766 22.1896V26.5H100.43V22.1896C100.43 21.8779 100.565 21.5984 100.779 21.3941C100.992 21.1899 101.284 21.0717 101.61 21.0717C102.25 21.0717 102.766 21.5661 102.766 22.1896Z" fill="#1D75DD"/>
<path d="M106.73 23.716V26.5H104.395V23.716C104.395 23.4042 104.529 23.1248 104.743 22.9205C104.956 22.7163 105.248 22.598 105.574 22.598C106.203 22.598 106.73 23.0925 106.73 23.716Z" fill="#1D75DD"/>
<path d="M110.683 16.8257V26.5H108.348V16.8257C108.348 16.514 108.482 16.2345 108.696 16.0303C108.909 15.8261 109.201 15.7078 109.527 15.7078C110.167 15.7078 110.683 16.2023 110.683 16.8257Z" fill="#1D75DD"/>
<path d="M114.647 11.1179V26.5H112.312V11.1179C112.312 10.8062 112.446 10.5267 112.66 10.3225C112.873 10.1182 113.165 10 113.491 10C114.12 10 114.647 10.5052 114.647 11.1179Z" fill="#1D75DD"/>
<path d="M118.6 20.9857V26.5H116.265V20.9857C116.265 20.6739 116.399 20.3945 116.613 20.1902C116.826 19.986 117.118 19.8678 117.444 19.8678C118.084 19.8678 118.6 20.373 118.6 20.9857Z" fill="#1D75DD"/>
<path d="M122.564 14.9554V26.5001H120.229V14.9554C120.229 14.6436 120.363 14.3642 120.577 14.1599C120.79 13.9557 121.082 13.8375 121.408 13.8375C122.037 13.8375 122.564 14.3427 122.564 14.9554Z" fill="#1D75DD"/>
<path d="M126.529 22.899V26.5H124.193V22.899C124.193 22.5873 124.328 22.3078 124.541 22.1036C124.754 21.8993 125.046 21.7704 125.372 21.7704C126.001 21.7811 126.529 22.2863 126.529 22.899Z" fill="#1D75DD"/>
<path d="M130.818 22.1896V26.5H128.483V22.1896C128.483 21.8779 128.617 21.5984 128.831 21.3941C129.044 21.1899 129.336 21.0717 129.662 21.0717C130.291 21.0717 130.818 21.5661 130.818 22.1896Z" fill="#1D75DD"/>
<path d="M134.772 23.716V26.5H132.436V23.716C132.436 23.4042 132.57 23.1248 132.784 22.9205C132.997 22.7163 133.289 22.598 133.615 22.598C134.256 22.598 134.772 23.0925 134.772 23.716Z" fill="#1D75DD"/>
<path d="M138.735 16.8257V26.5H136.4V16.8257C136.4 16.514 136.534 16.2345 136.737 16.0303C136.95 15.8261 137.242 15.7078 137.568 15.7078C138.208 15.7078 138.735 16.2023 138.735 16.8257Z" fill="#1D75DD"/>
<path d="M142.7 11.1179V26.5H140.364V11.1179C140.364 10.8062 140.499 10.5267 140.701 10.3225C140.914 10.1182 141.206 10 141.532 10C142.172 10 142.7 10.5052 142.7 11.1179Z" fill="#1D75DD"/>
<path d="M146.651 20.9857V26.5H144.317V20.9857C144.317 20.6739 144.451 20.3945 144.665 20.1902C144.878 19.986 145.17 19.8678 145.495 19.8678C146.135 19.8678 146.651 20.373 146.651 20.9857Z" fill="#1D75DD"/>
<path d="M150.617 14.9554V26.5001H148.281V14.9554C148.281 14.6436 148.416 14.3642 148.629 14.1599C148.842 13.9557 149.134 13.8375 149.46 13.8375C150.089 13.8375 150.617 14.3427 150.617 14.9554Z" fill="#1D75DD"/>
<path d="M154.571 22.899V26.5H152.233V22.899C152.233 22.5873 152.368 22.3078 152.57 22.1036C152.783 21.8993 153.076 21.7704 153.402 21.7704C154.054 21.7811 154.571 22.2863 154.571 22.899Z" fill="#989BA1"/>
<path d="M158.534 22.1896V26.5H156.198V22.1896C156.198 21.8779 156.333 21.5984 156.535 21.3941C156.748 21.1899 157.04 21.0717 157.366 21.0717C158.006 21.0717 158.534 21.5661 158.534 22.1896Z" fill="#989BA1"/>
<path d="M162.498 23.716V26.5H160.162V23.716C160.162 23.4042 160.297 23.1248 160.51 22.9205C160.723 22.7163 161.015 22.598 161.341 22.598C161.97 22.598 162.498 23.0925 162.498 23.716Z" fill="#989BA1"/>
<path d="M166.451 16.8257V26.5H164.115V16.8257C164.115 16.514 164.25 16.2345 164.463 16.0303C164.676 15.8261 164.968 15.7078 165.294 15.7078C165.923 15.7078 166.451 16.2023 166.451 16.8257Z" fill="#989BA1"/>
<path d="M170.415 11.1179V26.5H168.079V11.1179C168.079 10.8062 168.214 10.5267 168.427 10.3225C168.64 10.1182 168.932 10 169.258 10C169.887 10 170.415 10.5052 170.415 11.1179Z" fill="#989BA1"/>
<path d="M174.368 20.9857V26.5H172.032V20.9857C172.032 20.6739 172.167 20.3945 172.38 20.1902C172.593 19.986 172.885 19.8678 173.211 19.8678C173.84 19.8678 174.368 20.373 174.368 20.9857Z" fill="#989BA1"/>
<path d="M178.332 14.9554V26.5001H175.996V14.9554C175.996 14.6436 176.131 14.3642 176.344 14.1599C176.558 13.9557 176.85 13.8375 177.175 13.8375C177.804 13.8375 178.332 14.3427 178.332 14.9554Z" fill="#989BA1"/>
<path d="M182.285 22.899V26.5H179.949V22.899C179.949 22.5873 180.084 22.3078 180.297 22.1036C180.51 21.8993 180.802 21.7704 181.128 21.7704C181.768 21.7811 182.285 22.2863 182.285 22.899Z" fill="#989BA1"/>
<path d="M186.249 22.1896V26.5H183.913V22.1896C183.913 21.8779 184.048 21.5984 184.261 21.3941C184.475 21.1899 184.767 21.0717 185.092 21.0717C185.721 21.0717 186.249 21.5661 186.249 22.1896Z" fill="#989BA1"/>
<path d="M190.202 23.716V26.5H187.866V23.716C187.866 23.4042 188.001 23.1248 188.203 22.9205C188.416 22.7163 188.708 22.598 189.034 22.598C189.685 22.598 190.202 23.0925 190.202 23.716Z" fill="#989BA1"/>
<path d="M194.166 16.8257V26.5H191.83V16.8257C191.83 16.514 191.965 16.2345 192.167 16.0303C192.38 15.8261 192.672 15.7078 192.998 15.7078C193.638 15.7078 194.166 16.2023 194.166 16.8257Z" fill="#989BA1"/>
<path d="M198.13 11.1179V26.5H195.794V11.1179C195.794 10.8062 195.929 10.5267 196.131 10.3225C196.345 10.1182 196.636 10 196.962 10C197.602 10 198.13 10.5052 198.13 11.1179Z" fill="#989BA1"/>
<path d="M202.083 20.9857V26.5H199.747V20.9857C199.747 20.6739 199.882 20.3945 200.084 20.1902C200.297 19.986 200.589 19.8678 200.915 19.8678C201.555 19.8678 202.083 20.373 202.083 20.9857Z" fill="#989BA1"/>
<path d="M206.047 14.9554V26.5001H203.711V14.9554C203.711 14.6436 203.846 14.3642 204.048 14.1599C204.262 13.9557 204.554 13.8375 204.879 13.8375C205.519 13.8375 206.047 14.3427 206.047 14.9554Z" fill="#989BA1"/>
<path d="M210 22.899V26.5H207.664V22.899C207.664 22.5873 207.799 22.3078 208.001 22.1036C208.214 21.8993 208.506 21.7704 208.832 21.7704C209.483 21.7811 210 22.2863 210 22.899Z" fill="#989BA1"/>
</g>
<defs>
<clipPath id="clip0_102_2">
<rect width="165" height="16.5" fill="white" transform="translate(45 10)"/>
</clipPath>
</defs>
</svg>
