<svg width="120" height="40" viewBox="0 0 120 40" fill="none" xmlns="http://www.w3.org/2000/svg">
<path d="M60.684 26.304H68.16V30H56.82V10.4H60.684V26.304ZM81.8417 28.264C80.4044 29.6827 78.6497 30.392 76.5777 30.392C74.5057 30.392 72.7511 29.6827 71.3137 28.264C69.8951 26.8267 69.1857 25.072 69.1857 23C69.1857 20.928 69.8951 19.1827 71.3137 17.764C72.7511 16.3267 74.5057 15.608 76.5777 15.608C78.6497 15.608 80.4044 16.3267 81.8417 17.764C83.2791 19.1827 83.9977 20.928 83.9977 23C83.9977 25.072 83.2791 26.8267 81.8417 28.264ZM73.8617 25.772C74.5897 26.5 75.4951 26.864 76.5777 26.864C77.6604 26.864 78.5657 26.5 79.2937 25.772C80.0217 25.044 80.3857 24.12 80.3857 23C80.3857 21.88 80.0217 20.956 79.2937 20.228C78.5657 19.5 77.6604 19.136 76.5777 19.136C75.4951 19.136 74.5897 19.5 73.8617 20.228C73.1524 20.956 72.7977 21.88 72.7977 23C72.7977 24.12 73.1524 25.044 73.8617 25.772ZM97.2627 16H100.791V29.328C100.791 31.4933 100.072 33.1453 98.6347 34.284C97.2161 35.4227 95.4987 35.992 93.4827 35.992C91.9707 35.992 90.6361 35.7027 89.4787 35.124C88.3401 34.5453 87.4627 33.696 86.8467 32.576L89.9267 30.812C90.6361 32.1187 91.8587 32.772 93.5947 32.772C94.7334 32.772 95.6294 32.4733 96.2827 31.876C96.9361 31.2787 97.2627 30.4293 97.2627 29.328V27.816C96.1987 29.2347 94.7054 29.944 92.7827 29.944C90.8041 29.944 89.1427 29.2533 87.7987 27.872C86.4734 26.472 85.8107 24.7733 85.8107 22.776C85.8107 20.7973 86.4827 19.108 87.8267 17.708C89.1707 16.308 90.8227 15.608 92.7827 15.608C94.7054 15.608 96.1987 16.3173 97.2627 17.736V16ZM90.5147 25.548C91.2614 26.2573 92.2041 26.612 93.3427 26.612C94.4814 26.612 95.4147 26.2573 96.1427 25.548C96.8894 24.82 97.2627 23.896 97.2627 22.776C97.2627 21.6747 96.8894 20.7693 96.1427 20.06C95.4147 19.332 94.4814 18.968 93.3427 18.968C92.2041 18.968 91.2614 19.332 90.5147 20.06C89.7867 20.7693 89.4227 21.6747 89.4227 22.776C89.4227 23.896 89.7867 24.82 90.5147 25.548ZM115.994 28.264C114.557 29.6827 112.802 30.392 110.73 30.392C108.658 30.392 106.903 29.6827 105.466 28.264C104.047 26.8267 103.338 25.072 103.338 23C103.338 20.928 104.047 19.1827 105.466 17.764C106.903 16.3267 108.658 15.608 110.73 15.608C112.802 15.608 114.557 16.3267 115.994 17.764C117.431 19.1827 118.15 20.928 118.15 23C118.15 25.072 117.431 26.8267 115.994 28.264ZM108.014 25.772C108.742 26.5 109.647 26.864 110.73 26.864C111.813 26.864 112.718 26.5 113.446 25.772C114.174 25.044 114.538 24.12 114.538 23C114.538 21.88 114.174 20.956 113.446 20.228C112.718 19.5 111.813 19.136 110.73 19.136C109.647 19.136 108.742 19.5 108.014 20.228C107.305 20.956 106.95 21.88 106.95 23C106.95 24.12 107.305 25.044 108.014 25.772Z" fill="#555758"/>
<circle cx="20" cy="20" r="20" fill="url(#paint0_linear_102_2)"/>
<g filter="url(#filter0_i_102_2)">
<mask id="mask0_102_2" style="mask-type:alpha" maskUnits="userSpaceOnUse" x="0" y="0" width="40" height="40">
<circle cx="20" cy="20" r="20" fill="url(#paint1_linear_102_2)"/>
</mask>
<g mask="url(#mask0_102_2)">
<path d="M8.744 30.664H21.56V37H2.12V3.4H8.744V30.664ZM45.0144 34.024C42.5504 36.456 39.5424 37.672 35.9904 37.672C32.4384 37.672 29.4304 36.456 26.9664 34.024C24.5344 31.56 23.3184 28.552 23.3184 25C23.3184 21.448 24.5344 18.456 26.9664 16.024C29.4304 13.56 32.4384 12.328 35.9904 12.328C39.5424 12.328 42.5504 13.56 45.0144 16.024C47.4784 18.456 48.7104 21.448 48.7104 25C48.7104 28.552 47.4784 31.56 45.0144 34.024ZM31.3344 29.752C32.5824 31 34.1344 31.624 35.9904 31.624C37.8464 31.624 39.3984 31 40.6464 29.752C41.8944 28.504 42.5184 26.92 42.5184 25C42.5184 23.08 41.8944 21.496 40.6464 20.248C39.3984 19 37.8464 18.376 35.9904 18.376C34.1344 18.376 32.5824 19 31.3344 20.248C30.1184 21.496 29.5104 23.08 29.5104 25C29.5104 26.92 30.1184 28.504 31.3344 29.752Z" fill="white"/>
</g>
</g>
<defs>
<filter id="filter0_i_102_2" x="2.12" y="3.39999" width="37.88" height="35.272" filterUnits="userSpaceOnUse" color-interpolation-filters="sRGB">
<feFlood flood-opacity="0" result="BackgroundImageFix"/>
<feBlend mode="normal" in="SourceGraphic" in2="BackgroundImageFix" result="shape"/>
<feColorMatrix in="SourceAlpha" type="matrix" values="0 0 0 0 0 0 0 0 0 0 0 0 0 0 0 0 0 0 127 0" result="hardAlpha"/>
<feOffset dy="2"/>
<feGaussianBlur stdDeviation="0.5"/>
<feComposite in2="hardAlpha" operator="arithmetic" k2="-1" k3="1"/>
<feColorMatrix type="matrix" values="0 0 0 0 0 0 0 0 0 0 0 0 0 0 0 0 0 0 0.14 0"/>
<feBlend mode="normal" in2="shape" result="effect1_innerShadow_102_2"/>
</filter>
<linearGradient id="paint0_linear_102_2" x1="0" y1="20" x2="40" y2="20" gradientUnits="userSpaceOnUse">
<stop stop-color="#1D75DD"/>
<stop offset="1" stop-color="#085EC4"/>
</linearGradient>
<linearGradient id="paint1_linear_102_2" x1="0" y1="20" x2="40" y2="20" gradientUnits="userSpaceOnUse">
<stop stop-color="#49ACAA"/>
<stop offset="1" stop-color="#3FC1C0"/>
</linearGradient>
</defs>
</svg>
