<svg width="40" height="40" viewBox="0 0 40 40" fill="none" xmlns="http://www.w3.org/2000/svg">
<g filter="url(#filter0_i_0_80)">
<mask id="mask0_0_80" style="mask-type:alpha" maskUnits="userSpaceOnUse" x="0" y="0" width="40" height="40">
<circle cx="20" cy="20" r="20" fill="url(#paint0_linear_0_80)"/>
</mask>
<g mask="url(#mask0_0_80)">
<circle cx="20" cy="20" r="20" fill="url(#paint1_linear_0_80)"/>
<path d="M8.744 30.664H21.56V37H2.12V3.4H8.744V30.664ZM45.0144 34.024C42.5504 36.456 39.5424 37.672 35.9904 37.672C32.4384 37.672 29.4304 36.456 26.9664 34.024C24.5344 31.56 23.3184 28.552 23.3184 25C23.3184 21.448 24.5344 18.456 26.9664 16.024C29.4304 13.56 32.4384 12.328 35.9904 12.328C39.5424 12.328 42.5504 13.56 45.0144 16.024C47.4784 18.456 48.7104 21.448 48.7104 25C48.7104 28.552 47.4784 31.56 45.0144 34.024ZM31.3344 29.752C32.5824 31 34.1344 31.624 35.9904 31.624C37.8464 31.624 39.3984 31 40.6464 29.752C41.8944 28.504 42.5184 26.92 42.5184 25C42.5184 23.08 41.8944 21.496 40.6464 20.248C39.3984 19 37.8464 18.376 35.9904 18.376C34.1344 18.376 32.5824 19 31.3344 20.248C30.1184 21.496 29.5104 23.08 29.5104 25C29.5104 26.92 30.1184 28.504 31.3344 29.752Z" fill="white"/>
</g>
</g>
<defs>
<filter id="filter0_i_0_80" x="0" y="0" width="40" height="41" filterUnits="userSpaceOnUse" color-interpolation-filters="sRGB">
<feFlood flood-opacity="0" result="BackgroundImageFix"/>
<feBlend mode="normal" in="SourceGraphic" in2="BackgroundImageFix" result="shape"/>
<feColorMatrix in="SourceAlpha" type="matrix" values="0 0 0 0 0 0 0 0 0 0 0 0 0 0 0 0 0 0 127 0" result="hardAlpha"/>
<feOffset dy="2"/>
<feGaussianBlur stdDeviation="0.5"/>
<feComposite in2="hardAlpha" operator="arithmetic" k2="-1" k3="1"/>
<feColorMatrix type="matrix" values="0 0 0 0 0 0 0 0 0 0 0 0 0 0 0 0 0 0 0.14 0"/>
<feBlend mode="normal" in2="shape" result="effect1_innerShadow_0_80"/>
</filter>
<linearGradient id="paint0_linear_0_80" x1="0" y1="20" x2="40" y2="20" gradientUnits="userSpaceOnUse">
<stop stop-color="#49ACAA"/>
<stop offset="1" stop-color="#3FC1C0"/>
</linearGradient>
<linearGradient id="paint1_linear_0_80" x1="0" y1="20" x2="40" y2="20" gradientUnits="userSpaceOnUse">
<stop stop-color="#1D75DD"/>
<stop offset="1" stop-color="#085EC4"/>
</linearGradient>
</defs>
</svg>
