<svg width="66" height="66" viewBox="0 0 66 66" fill="none" xmlns="http://www.w3.org/2000/svg">
    <rect width="66" height="66" rx="24" fill="url(#paint0_linear_1_234)"/>
    <path fill-rule="evenodd" clip-rule="evenodd"
          d="M33.1935 33.7499C35.837 33.7499 37.9801 31.6069 37.9801 28.9633C37.9801 26.3198 35.837 24.1768 33.1935 24.1768C30.55 24.1768 28.4069 26.3198 28.4069 28.9633C28.4069 31.6069 30.55 33.7499 33.1935 33.7499Z"
          fill="white"/>
    <path fill-rule="evenodd" clip-rule="evenodd"
          d="M37.3476 33.214C36.2714 34.2402 34.8064 34.8715 33.1924 34.8715C31.5784 34.8715 30.1134 34.2402 29.0372 33.214C28.8519 33.1681 28.6665 33.1227 28.4865 33.0997C28.3066 33.0768 28.1324 33.0768 27.9701 33.1019C27.8083 33.1264 27.6587 33.1767 27.4841 33.2391C27.3094 33.3011 27.1102 33.3759 26.8608 33.5255C26.6119 33.675 26.3123 33.8994 26.026 34.2738C25.7392 34.6472 25.4652 35.1712 25.2158 35.7946C24.9664 36.4174 24.742 37.1406 24.6176 37.8388C24.4932 38.5364 24.4681 39.21 24.4558 39.7206C24.443 40.2318 24.443 40.5811 24.4932 40.9177C24.5428 41.2542 24.6422 41.5779 24.867 41.9021C25.0913 42.2263 25.4401 42.5506 25.8513 42.7995C26.2626 43.0489 26.7363 43.2236 27.3847 43.3107C28.0326 43.3977 28.8551 43.3977 29.8522 43.3977H32.7438H33.1924H33.641H36.5326C37.5298 43.3977 38.3523 43.3977 39.0001 43.3107C39.6485 43.2236 40.1222 43.0489 40.5335 42.7995C40.9447 42.5506 41.2935 42.2263 41.5178 41.9021C41.7427 41.5779 41.842 41.2542 41.8917 40.9177C41.9419 40.5811 41.9419 40.2318 41.9291 39.7206C41.9168 39.21 41.8917 38.5364 41.7672 37.8388C41.6428 37.1406 41.4185 36.4174 41.169 35.7946C40.9196 35.1712 40.6456 34.6472 40.3588 34.2738C40.0726 33.8994 39.7729 33.675 39.524 33.5255C39.2746 33.3759 39.0754 33.3011 38.9008 33.2391C38.7261 33.1767 38.5766 33.1264 38.4147 33.1019C38.2524 33.0768 38.0783 33.0768 37.8983 33.0997C37.7183 33.1227 37.533 33.1681 37.3476 33.214Z"
          fill="white"/>
    <path fill-rule="evenodd" clip-rule="evenodd"
          d="M38.293 31.3222C39.1437 32.0988 40.2763 32.5732 41.519 32.5732C44.1619 32.5732 46.3044 30.4301 46.3044 27.7866C46.3044 25.143 44.1619 23 41.519 23C39.8219 23 38.3304 23.884 37.4813 25.2168C38.4393 26.0917 39.0406 27.3523 39.0406 28.7523C39.0406 29.6978 38.7661 30.5802 38.293 31.3222Z"
          fill="white"/>
    <path fill-rule="evenodd" clip-rule="evenodd"
          d="M27.707 31.3222C26.8563 32.0988 25.7237 32.5732 24.481 32.5732C21.8381 32.5732 19.6956 30.4301 19.6956 27.7866C19.6956 25.143 21.8381 23 24.481 23C26.1781 23 27.6696 23.884 28.5187 25.2168C27.5607 26.0917 26.9594 27.3523 26.9594 28.7523C26.9594 29.6978 27.2339 30.5802 27.707 31.3222Z"
          fill="white"/>
    <path fill-rule="evenodd" clip-rule="evenodd"
          d="M45.4097 32.2143C44.3651 33.2094 42.9551 33.8339 41.3976 33.8702L41.5697 34.0764C41.8566 34.4497 42.1307 34.9737 42.3802 35.5971C42.6297 36.2199 42.8541 36.9432 42.9786 37.6413C43.1031 38.3389 43.1282 39.0125 43.1405 39.5232C43.1533 40.0343 43.1533 40.3837 43.1031 40.7202C43.0534 41.0567 42.954 41.3804 42.7291 41.7047C42.5619 41.9461 42.3257 42.1881 42.0463 42.398H44.5943C45.5919 42.398 46.4147 42.398 47.0628 42.3109C47.7114 42.2239 48.1853 42.0492 48.5967 41.7997C49.0081 41.5508 49.357 41.2266 49.5814 40.9024C49.8064 40.5781 49.9058 40.2544 49.9554 39.9179C50.0057 39.5814 50.0057 39.232 49.9928 38.7209C49.9806 38.2102 49.9554 37.5366 49.8309 36.839C49.7065 36.1409 49.4821 35.4176 49.2325 34.7948C48.983 34.1714 48.7089 33.6474 48.422 33.2741C48.1356 32.8996 47.8359 32.6753 47.5869 32.5257C47.3374 32.3761 47.1381 32.3014 46.9634 32.2394C46.7887 32.1769 46.6391 32.1267 46.4772 32.1021C46.3148 32.077 46.1406 32.077 45.9605 32.1C45.7805 32.1229 45.5951 32.1683 45.4097 32.2143Z"
          fill="white"/>
    <path fill-rule="evenodd" clip-rule="evenodd"
          d="M20.5903 32.2143C21.6349 33.2094 23.0449 33.8339 24.6024 33.8702L24.4303 34.0764C24.1434 34.4497 23.8693 34.9737 23.6198 35.5971C23.3703 36.2199 23.1459 36.9432 23.0214 37.6413C22.8969 38.3389 22.8718 39.0125 22.8595 39.5232C22.8467 40.0343 22.8467 40.3837 22.8969 40.7202C22.9466 41.0567 23.046 41.3804 23.2709 41.7047C23.4381 41.9461 23.6743 42.1881 23.9537 42.398H21.4057C20.4081 42.398 19.5853 42.398 18.9372 42.3109C18.2886 42.2239 17.8147 42.0492 17.4033 41.7997C16.9919 41.5508 16.643 41.2266 16.4186 40.9024C16.1936 40.5781 16.0942 40.2544 16.0446 39.9179C15.9943 39.5814 15.9943 39.232 16.0072 38.7209C16.0194 38.2102 16.0446 37.5366 16.1691 36.839C16.2935 36.1409 16.5179 35.4176 16.7675 34.7948C17.017 34.1714 17.2911 33.6474 17.578 33.2741C17.8644 32.8996 18.1641 32.6753 18.4131 32.5257C18.6626 32.3761 18.8619 32.3014 19.0366 32.2394C19.2113 32.1769 19.3609 32.1267 19.5228 32.1021C19.6852 32.077 19.8594 32.077 20.0395 32.1C20.2195 32.1229 20.4049 32.1683 20.5903 32.2143Z"
          fill="white"/>
    <defs>
        <linearGradient id="paint0_linear_1_234" x1="13.5" y1="2.86509e-07" x2="45" y2="66"
                        gradientUnits="userSpaceOnUse">
            <stop stop-color="#FF858A"/>
            <stop offset="1" stop-color="#F04148"/>
        </linearGradient>
    </defs>
</svg>
